<mxfile host="app.diagrams.net" modified="2022-06-06T02:18:55.596Z" agent="5.0 (Windows NT 10.0; Win64; x64) AppleWebKit/537.36 (KHTML, like Gecko) Chrome/102.0.0.0 Safari/537.36" etag="_PA2DAm7MKdHSIEoRls6" version="19.0.0" type="github">
  <diagram id="kgpKYQtTHZ0yAKxKKP6v" name="Page-1">
    <mxGraphModel dx="943" dy="435" grid="1" gridSize="10" guides="1" tooltips="1" connect="1" arrows="1" fold="1" page="1" pageScale="1" pageWidth="850" pageHeight="1100" math="0" shadow="0">
      <root>
        <mxCell id="0" />
        <mxCell id="1" parent="0" />
        <mxCell id="t0Ze-QqLi1YP06bH1r3b-17" value="&lt;span style=&quot;font-size: 10px;&quot;&gt;Backup&lt;/span&gt;" style="shape=umlFrame;whiteSpace=wrap;html=1;" vertex="1" parent="1">
          <mxGeometry x="30" y="360" width="490" height="300" as="geometry" />
        </mxCell>
        <mxCell id="t0Ze-QqLi1YP06bH1r3b-16" value="&lt;font style=&quot;font-size: 10px;&quot;&gt;Instantiate&lt;/font&gt;" style="shape=umlFrame;whiteSpace=wrap;html=1;" vertex="1" parent="1">
          <mxGeometry x="30" y="170" width="490" height="180" as="geometry" />
        </mxCell>
        <mxCell id="3nuBFxr9cyL0pnOWT2aG-1" value="Ternoa Enclaves" style="shape=umlLifeline;perimeter=lifelinePerimeter;container=1;collapsible=0;recursiveResize=0;rounded=0;shadow=0;strokeWidth=1;" parent="1" vertex="1">
          <mxGeometry x="120" y="80" width="100" height="620" as="geometry" />
        </mxCell>
        <mxCell id="3nuBFxr9cyL0pnOWT2aG-2" value="" style="points=[];perimeter=orthogonalPerimeter;rounded=0;shadow=0;strokeWidth=1;" parent="3nuBFxr9cyL0pnOWT2aG-1" vertex="1">
          <mxGeometry x="45" y="70" width="10" height="530" as="geometry" />
        </mxCell>
        <mxCell id="3nuBFxr9cyL0pnOWT2aG-3" value="generate key pair&#xa;with SSS " style="verticalAlign=bottom;startArrow=oval;endArrow=block;startSize=8;shadow=0;strokeWidth=1;" parent="3nuBFxr9cyL0pnOWT2aG-1" edge="1">
          <mxGeometry relative="1" as="geometry">
            <mxPoint x="-80" y="160" as="sourcePoint" />
            <mxPoint x="45" y="160" as="targetPoint" />
          </mxGeometry>
        </mxCell>
        <mxCell id="3nuBFxr9cyL0pnOWT2aG-5" value="Fat Contract" style="shape=umlLifeline;perimeter=lifelinePerimeter;container=1;collapsible=0;recursiveResize=0;rounded=0;shadow=0;strokeWidth=1;" parent="1" vertex="1">
          <mxGeometry x="300" y="80" width="100" height="620" as="geometry" />
        </mxCell>
        <mxCell id="3nuBFxr9cyL0pnOWT2aG-6" value="" style="points=[];perimeter=orthogonalPerimeter;rounded=0;shadow=0;strokeWidth=1;" parent="3nuBFxr9cyL0pnOWT2aG-5" vertex="1">
          <mxGeometry x="45" y="170" width="10" height="430" as="geometry" />
        </mxCell>
        <mxCell id="3nuBFxr9cyL0pnOWT2aG-4" value="" style="points=[];perimeter=orthogonalPerimeter;rounded=0;shadow=0;strokeWidth=1;" parent="3nuBFxr9cyL0pnOWT2aG-5" vertex="1">
          <mxGeometry x="50" y="180" width="10" height="80" as="geometry" />
        </mxCell>
        <mxCell id="t0Ze-QqLi1YP06bH1r3b-5" value="check origin &amp;amp;&lt;br&gt;save pubkey as &lt;br&gt;admin identity" style="edgeStyle=orthogonalEdgeStyle;html=1;align=left;spacingLeft=2;endArrow=block;rounded=0;" edge="1" target="3nuBFxr9cyL0pnOWT2aG-4" parent="3nuBFxr9cyL0pnOWT2aG-5" source="3nuBFxr9cyL0pnOWT2aG-4">
          <mxGeometry relative="1" as="geometry">
            <mxPoint x="190" y="280" as="sourcePoint" />
            <Array as="points">
              <mxPoint x="80" y="190" />
              <mxPoint x="80" y="250" />
            </Array>
          </mxGeometry>
        </mxCell>
        <mxCell id="t0Ze-QqLi1YP06bH1r3b-11" value="generate key pair&#xa;with SSS " style="verticalAlign=bottom;startArrow=oval;endArrow=block;startSize=8;shadow=0;strokeWidth=1;" edge="1" parent="3nuBFxr9cyL0pnOWT2aG-5">
          <mxGeometry relative="1" as="geometry">
            <mxPoint x="-260" y="480" as="sourcePoint" />
            <mxPoint x="-135" y="480" as="targetPoint" />
          </mxGeometry>
        </mxCell>
        <mxCell id="t0Ze-QqLi1YP06bH1r3b-12" value="" style="points=[];perimeter=orthogonalPerimeter;rounded=0;shadow=0;strokeWidth=1;" vertex="1" parent="3nuBFxr9cyL0pnOWT2aG-5">
          <mxGeometry x="-130" y="480" width="10" height="80" as="geometry" />
        </mxCell>
        <mxCell id="t0Ze-QqLi1YP06bH1r3b-13" value="verify data source &amp;amp;&lt;br&gt;generate decryption key &lt;br&gt;with ECDH &amp;amp;&lt;br&gt;decrypt data with AES" style="edgeStyle=orthogonalEdgeStyle;html=1;align=left;spacingLeft=2;endArrow=block;rounded=0;" edge="1" parent="3nuBFxr9cyL0pnOWT2aG-5" source="t0Ze-QqLi1YP06bH1r3b-12" target="t0Ze-QqLi1YP06bH1r3b-12">
          <mxGeometry relative="1" as="geometry">
            <mxPoint x="-100" y="500" as="sourcePoint" />
            <Array as="points">
              <mxPoint x="-100" y="490" />
              <mxPoint x="-100" y="550" />
            </Array>
            <mxPoint x="-100" y="590" as="targetPoint" />
          </mxGeometry>
        </mxCell>
        <mxCell id="t0Ze-QqLi1YP06bH1r3b-8" value="" style="points=[];perimeter=orthogonalPerimeter;rounded=0;shadow=0;strokeWidth=1;" vertex="1" parent="3nuBFxr9cyL0pnOWT2aG-5">
          <mxGeometry x="50" y="370" width="10" height="110" as="geometry" />
        </mxCell>
        <mxCell id="t0Ze-QqLi1YP06bH1r3b-9" value="verify admin sig &amp;amp;&lt;br&gt;generate encryption key &lt;br&gt;with ECDH &amp;amp;&lt;br&gt;encrypt data with AES" style="edgeStyle=orthogonalEdgeStyle;html=1;align=left;spacingLeft=2;endArrow=block;rounded=0;" edge="1" parent="3nuBFxr9cyL0pnOWT2aG-5" source="t0Ze-QqLi1YP06bH1r3b-8" target="t0Ze-QqLi1YP06bH1r3b-8">
          <mxGeometry relative="1" as="geometry">
            <mxPoint x="115" y="390" as="sourcePoint" />
            <Array as="points">
              <mxPoint x="80" y="380" />
              <mxPoint x="80" y="470" />
            </Array>
            <mxPoint x="115" y="450" as="targetPoint" />
          </mxGeometry>
        </mxCell>
        <mxCell id="t0Ze-QqLi1YP06bH1r3b-6" value="generate key pair&#xa;with SSS " style="verticalAlign=bottom;startArrow=oval;endArrow=block;startSize=8;shadow=0;strokeWidth=1;" edge="1" parent="3nuBFxr9cyL0pnOWT2aG-5">
          <mxGeometry relative="1" as="geometry">
            <mxPoint x="-260" y="350" as="sourcePoint" />
            <mxPoint x="-135" y="350" as="targetPoint" />
          </mxGeometry>
        </mxCell>
        <mxCell id="t0Ze-QqLi1YP06bH1r3b-7" value="admin_backup_key(&#xa;admin_sig, ecdh_pubkey)" style="verticalAlign=bottom;endArrow=block;shadow=0;strokeWidth=1;" edge="1" parent="3nuBFxr9cyL0pnOWT2aG-5">
          <mxGeometry relative="1" as="geometry">
            <mxPoint x="-125" y="360" as="sourcePoint" />
            <mxPoint x="45" y="360" as="targetPoint" />
            <Array as="points">
              <mxPoint x="-80" y="360" />
            </Array>
          </mxGeometry>
        </mxCell>
        <mxCell id="t0Ze-QqLi1YP06bH1r3b-10" value="(contract_sig, cipher,&lt;br&gt;contract_ecdh_pubkey)" style="html=1;verticalAlign=bottom;endArrow=open;dashed=1;endSize=8;rounded=0;" edge="1" parent="3nuBFxr9cyL0pnOWT2aG-5">
          <mxGeometry relative="1" as="geometry">
            <mxPoint x="45" y="470" as="sourcePoint" />
            <mxPoint x="-125" y="470" as="targetPoint" />
            <Array as="points">
              <mxPoint x="-60" y="470" />
            </Array>
          </mxGeometry>
        </mxCell>
        <mxCell id="3nuBFxr9cyL0pnOWT2aG-8" value="set_admin_pubkey(pubkey)&#xa;as contract owner" style="verticalAlign=bottom;endArrow=block;entryX=0;entryY=0;shadow=0;strokeWidth=1;" parent="1" edge="1">
          <mxGeometry relative="1" as="geometry">
            <mxPoint x="175" y="250.00000000000193" as="sourcePoint" />
            <mxPoint x="345" y="250.00000000000193" as="targetPoint" />
          </mxGeometry>
        </mxCell>
      </root>
    </mxGraphModel>
  </diagram>
</mxfile>
